<?xml version="1.0" encoding="utf-8"?>
<!-- Generator: Adobe Illustrator 18.0.0, SVG Export Plug-In . SVG Version: 6.00 Build 0)  -->
<!DOCTYPE svg PUBLIC "-//W3C//DTD SVG 1.1//EN" "http://www.w3.org/Graphics/SVG/1.1/DTD/svg11.dtd">
<svg version="1.1" id="Layer_1" xmlns="http://www.w3.org/2000/svg" xmlns:xlink="http://www.w3.org/1999/xlink" x="0px" y="0px"
	 width="541px" height="559px" viewBox="0 0 541 559" style="enable-background:new 0 0 541 559;" xml:space="preserve">
<style type="text/css">
	.st0{fill:#FFFFFF;}
	.st1{fill:#E8F1F8;}
	.st2{fill:#FFCA19;}
	.st3{fill:#F4A600;}
	.st4{fill:#EE4A47;}
	.st5{fill:#E23E3B;}
	.st6{fill:#FE5956;}
	.st7{opacity:0.25;}
	.st8{fill:#E4908E;}
	.st9{fill:#FFADA8;}
	.st10{fill:#C7C4E5;}
	.st11{fill:#B4B0D8;}
	.st12{fill:#7D4EDF;}
	.st13{fill:#85A9E5;}
	.st14{fill:#9CBCF3;}
	.st15{opacity:0.34;}
	.st16{fill:#AFBDD4;}
	.st17{fill:#F5877D;}
	.st18{fill:#450650;}
	.st19{fill:#453333;}
	.st20{fill:#FFADA7;}
	.st21{fill:#FF706D;}
	.st22{fill:#8A5BEB;}
	.st23{fill:#ADCBFE;}
	.st24{fill:#CDE0FF;}
	.st25{fill:#E6E4F1;}
	.st26{fill:#ACA5BF;}
	.st27{fill:#FF8A7E;}
	.st28{fill:#FFC3D5;}
	.st29{fill:#7A8FFF;}
	.st30{fill:#BAD04C;}
	.st31{fill:#C2CFCD;}
</style>
<path class="st0" d="M255.5,381.8c-9.5,36.6-79.9,74.7-118,109c-3.9,3.5-8-2-7-3c46.2-47,97.1-151.6,100-188
	c2.4-29.7,147.5,77.7,104,121C317.3,437.9,280.9,417.4,255.5,381.8z"/>
<path class="st0" d="M406.5,360.8c0,0-55.4-10.2-88-41c-5.6-5.3-10.7,4.5-9,7c17.6,26.3,104.8,100,129,78c21.8-19.9,8.6-131-15-143
	C367.6,233.4,406.5,360.8,406.5,360.8z"/>
<path class="st0" d="M389.5,171.9c6.9,7.9,5.5,31.4-5.2,38c-2.5,11.4,4.3,21.2,8.2,24c-22.3,11-35.8,0.2-36-8c11.6,0.2,9-10,9-10
	s-3.3,1.5-5,0c-6.4-5.6-8.2-31.4-8-34C354.1,163.7,379.2,159.9,389.5,171.9z"/>
<path class="st0" d="M308.5,382.8c1-12.9-156.1-94.3-176-88c-18.1,5.7-53.5,138.7-95,185c-2.5,2.8,3.5,11.1,7,8
	c14.1-12.7,88.1-98.3,100-143c1.3-4.6,93.3,103.4,141,76C289.5,418.5,307.4,395.7,308.5,382.8z"/>
<path class="st0" d="M129.5,284.8c2.3,3.1,48.3,38.4,53,40c4.7,1.6,115.1,14.7,117,14s5.5-5.9,6-8s-56-43-56-43
	S127.3,281.8,129.5,284.8z"/>
<path class="st0" d="M357.5,225.7c0,0-23.9,0.7-50,22c4.4,18.6,15.7,58.5-17,92c4.5,2,32.5,68,41,83c13.3-1.7,96.3-65.3,96.6-153.2
	c0-11-26.4-32.1-35.6-35.7C386.8,231.6,357.5,225.7,357.5,225.7z"/>
<path class="st0" d="M314.5,293.8c-13.3,13-52.3,13.7-58,13c-5.7-0.7-39-8-39-8s59.3-16.4,90-51
	C312.1,242.6,319.8,288.6,314.5,293.8z"/>
<path class="st0" d="M318.6,350.7c-8.4,16-94.4,20.2-110,20s-53.6,21.6-73,58c-11,20.7,7.2,76.5,48.9,76.5c59.1,0,159.8-0.5,253-0.5
	c138.2,0,57.2-269.1-8-295.9c-32.8-13.5-92.6,2.2-88,36C345.6,274.9,326.9,334.9,318.6,350.7z"/>
<g>
	<path class="st1" d="M183.7,320.3c8.4,77.6,151.7,148.8,211.1,146.6C473.9,464,538.4,349.2,539,279.5
		c0.7-87.4-84.2-165.5-149.4-176.2C234.2,77.8,178.5,272.6,183.7,320.3z"/>
	<g>
		<path class="st2" d="M318.6,350.7c-8.4,16-94.4,20.2-110,20s-53.6,21.6-73,58c-11,20.7,7.2,76.5,48.9,76.5
			c59.1,0,159.8-0.5,253-0.5c138.2,0,57.2-269.1-8-295.9c-32.8-13.5-92.6,2.2-88,36C345.6,274.9,326.9,334.9,318.6,350.7z"/>
		<g>
			<path class="st3" d="M391.8,204.4c2-4.5,3.9-8.8,2.8-10.5c-2.5-4-31.7,2.2-41,9c-9.3,6.8-17.8,18.3-22,28c-4.2,9.7,2,28,2,28
				l22,65l17,36.1l-1.1,0.9l-38,22c0,0-135.6-8.8-146-9c-10.5-0.2-37.7,16.5-52,32s-13.7,72.3-5,90c7.3,14.9,62.7,18.3,91.7,20.1
				c5.6,0.3,10.2,0.6,13.3,0.9c19,1.8,252.5,2.3,269.9-35c3-6.5-3-13-14-4c-20,16.4-240.3,18.1-268.9-3c-9.5-7,9-29.9,25-35
				c5.7-1.8,14.4-1.4,24.5-1c11,0.5,23.8,1.1,36.5-1c26.7-4.4,56.8-14.7,67-20c4.7-2.4,12.8-1.3,22.3,0.1
				c11.2,1.6,24.3,3.5,35.7-0.1c7.6-2.4,11.6-20,11-32c-0.5-10.1-19.7-32-26-38.9l21-18.1c0,0,5.2-8,5-16c-1.1-40.7-17.9-69.3-55-94
				C386.3,216.8,389.1,210.3,391.8,204.4z"/>
		</g>
		<path class="st4" d="M314.5,293.8c-13.3,13-52.3,13.7-58,13c-5.7-0.7-39-8-39-8s59.3-16.4,90-51
			C312.1,242.6,319.8,288.6,314.5,293.8z"/>
		<g>
			<path class="st5" d="M316.5,299.8c0.2,1.9-21,8-21,8h-32c0,0-8.2-8.6-5-9c13-1.6,54.9-19.9,61-34
				C321.3,260.7,316.3,297.9,316.5,299.8z"/>
		</g>
		<path class="st6" d="M357.5,225.7c0,0-23.9,0.7-50,22c4.4,18.6,15.7,58.5-17,92c4.5,2,32.5,68,41,83
			c13.3-1.7,96.3-65.3,96.6-153.2c0-11-26.4-32.1-35.6-35.7C386.8,231.6,357.5,225.7,357.5,225.7z"/>
		<g>
			<g class="st7">
				<path class="st8" d="M404.5,300.8l10,38l-5,35l-61,55l-18-4l10-37l28-27c0,0,26.1-31.5,26-80
					C394.5,274.3,404.5,300.8,404.5,300.8z"/>
			</g>
		</g>
		<path class="st9" d="M313.5,326.8c0,0-20.2-2-24-2c-3.8,0-14.6-12.1-10-14s33,4.8,36,7C318.4,320,313.5,326.8,313.5,326.8z"/>
		<path class="st10" d="M129.5,284.8c2.3,3.1,48.3,38.4,53,40c4.7,1.6,115.1,14.7,117,14s5.5-5.9,6-8s-56-43-56-43
			S127.3,281.8,129.5,284.8z"/>
		<g>
			<path class="st11" d="M124.5,277.8l5,23l92,38l84-4l-69-50L124.5,277.8z"/>
		</g>
		<path class="st12" d="M39.3,480.1c-3.4-2.5-36.2,16-36.9,21.7c-0.8,5.9,37.3-5.7,40.9-11.7C45.8,486,42.7,482.6,39.3,480.1z"/>
		<path class="st13" d="M308.5,382.8c1-12.9-156.1-94.3-176-88c-18.1,5.7-53.5,138.7-95,185c-2.5,2.8,3.5,11.1,7,8
			c14.1-12.7,88.1-98.3,100-143c1.3-4.6,93.3,103.4,141,76C289.5,418.5,307.4,395.7,308.5,382.8z"/>
		<g>
			<path class="st14" d="M38.8,487.5c-0.3-0.4-0.2-1.1,0.2-1.4c19.4-15.6,82.5-105.2,98.6-160.4c0.1-0.3,0.3-0.6,0.6-0.7
				s0.6-0.1,0.9,0.1c3.4,2.1,8.3,5.5,14.5,9.8c32.3,22.5,99.3,69,144.9,69c0.4,0,0.7,0,1,0c0.5,0,1,0.4,1,1c0,0.5-0.4,1-1,1
				c-46.3,0.7-114.3-46.6-147-69.3c-5.5-3.9-10.1-7-13.3-9.1C122.6,382.7,59.7,472,40.3,487.6c-0.2,0.1-0.4,0.2-0.6,0.2
				C39.4,487.8,39.1,487.7,38.8,487.5z"/>
			<g class="st15">
				<path class="st16" d="M174.6,351.3c-8.1-5.4-15.4-10.5-21.5-14.7c-6.2-4.3-11.2-7.7-14.5-9.8c-16.4,56.3-80.5,146.2-99,161
					c0.8,11,242.9-51,242.9-51s27.4-31.2,17-31c-14.1,0.2-30.2-4-46.7-10.7c6.4-1.2,11.7-2.5,11.7-3.3c0-2.1-14-66-14-66l-46-21
					c0,0-64-22.6-66-18c-0.7,1.7-2.3,3-3.5,4c-2.1,1.8-3.3,2.8,1.5,4c11.6,2.9,37.9,28.2,38,55C174.5,350.3,174.5,350.8,174.6,351.3
					z"/>
			</g>
		</g>
		<path class="st9" d="M389.5,171.9c6.9,7.9,5.5,31.4-5.2,38c-2.5,11.4,4.3,21.2,8.2,24c-22.3,11-35.8,0.2-36-8c11.6,0.2,9-10,9-10
			s-3.3,1.5-5,0c-6.4-5.6-8.2-31.4-8-34C354.1,163.7,379.2,159.9,389.5,171.9z"/>
		<g>
			<path class="st17" d="M364.5,223.9c9.2,0.1,18-17,18-17s-9.3,7.2-17,9C364.1,216.2,359.9,223.8,364.5,223.9z"/>
		</g>
		<path class="st18" d="M343.5,169.9c-0.6,6.5,8.1,17.3,13,6c8.1,9,18.6,4.7,21.8,5.1c-5.1,35.5,29.7,39.3,20.2,14.9
			c6.6-0.2,11.9-8.3,1-17c14.2-11.4-20.3-38.6-36-21C355.4,148.2,344.2,162,343.5,169.9z"/>
		<path class="st18" d="M362.4,147.6c2.5,3.1,3.3,6.9,2.2,10.7c-0.1,0.6-0.7,0.6-1.1,0.4c-0.4,0.3-1.1,0.1-1.2-0.6
			c-0.2-1.9-0.9-3.6-2-5.1c-0.6-0.8,0.7-1.6,1.3-0.8c0.9,1.3,1.6,2.8,1.9,4.3c0.4-2.8-0.3-5.5-2.1-7.8
			C360.8,148,361.9,146.9,362.4,147.6z M408.6,173.8c-2.8,3.1-6.2,5.4-10.2,6.8c-0.9,0.4-1.3-1.1-0.4-1.4c3.7-1.4,6.9-3.6,9.5-6.5
			C408.2,172,409.2,173.1,408.6,173.8z M403.9,199.4c-3-0.3-5.6-1.5-7.7-3.6c-0.6-0.7,0.4-1.8,1.1-1.1c1.8,1.7,4.1,2.8,6.6,3.1
			C404.9,197.9,404.9,199.4,403.9,199.4z"/>
		<path class="st19" d="M341.5,187.1c0,1,0.1,2.8,1,2.9c0.2,4,3.8,10.4,10,10c3.9-0.3,6.4-5.6,6.1-9.4c0.4,0,0.7,0,1,0
			c0.5,4,4,9.7,9.9,9.3c3.7-0.3,6.2-5.2,6.1-8.9c5.4,0.1,9.4,0.1,9.9-0.1c1.8-0.7,2.8-1.2,1-2c-1.8-0.8-45-2.9-45-2
			C341.5,186.9,341.5,187,341.5,187.1z M355.5,190.9c0.4,2.6-0.4,5.8-3.2,6c-4.6,0.3-7.1-3.9-6.8-6.6c0-0.1,0.1-0.2,0.3-0.3
			c1.8,0.1,4.3,0.2,7.1,0.3C354.4,190.5,355.5,190.7,355.5,190.9z M369.3,196.8c-4.4,0.3-6.8-3.5-6.8-6.2c3.4,0.1,6.8,0.2,10,0.3
			C372.9,193.5,372.1,196.7,369.3,196.8z"/>
		<path class="st20" d="M380.5,190.9c1-3,9.3-2.5,10,3c0.8,6.3-7.6,12.5-10,11C378.3,203.5,379.5,193.8,380.5,190.9z"/>
		<path class="st4" d="M406.5,360.8c0,0-55.4-10.2-88-41c-5.6-5.3-10.7,4.5-9,7c17.6,26.3,104.8,100,129,78
			c21.8-19.9,8.6-131-15-143C367.6,233.4,406.5,360.8,406.5,360.8z"/>
		<g>
			<path class="st5" d="M402.5,267.8c3.2-9.3,10-12,10-12l-14-4l-17,25l-1,52l21,31c0,0,5.7,2.1,11,3
				C408.3,349.9,395.9,287.2,402.5,267.8z M449.5,373.8c0,0,8.2,27.2-6,38c-14.2,10.8-65,0-65,0l-77-84c0,0,4.1-10.3,7-7
				c31.7,36.4,100,80.4,120,79C442.9,398.8,449.5,373.8,449.5,373.8z"/>
			<path class="st21" d="M414.3,392.5c-35.6-4.3-99.7-61.2-113.8-82.2l1.7-1.1c7.7,11.5,27.8,31,48.9,47.4
				c15,11.6,43.2,31.5,63.4,34c6.6,0.8,11.7-0.3,15.2-3.5c11.7-10.7,12.6-48.7,8.5-79.5c-4.4-32.6-13.5-56.9-23.3-61.9l0.9-1.8
				c8.2,4.2,18.9,23,24.3,63.4c4.4,32.3,3.2,70-9.1,81.2c-3.2,2.9-7.4,4.3-12.7,4.3C417,392.8,415.7,392.7,414.3,392.5z"/>
		</g>
		<path class="st22" d="M132.5,485.8c-4.3-0.9-46.4,28.5-39.6,32.1c6.8,3.5,44.4-15.8,44.4-23.9
			C137.2,488.9,136.7,486.7,132.5,485.8z"/>
		<path class="st23" d="M255.5,381.8c-9.5,36.6-79.9,74.7-118,109c-3.9,3.5-8-2-7-3c46.2-47,97.1-151.6,100-188
			c2.4-29.7,147.5,77.7,104,121C317.3,437.9,280.9,417.4,255.5,381.8z"/>
		<g>
			<path class="st14" d="M337.5,417.8c5.7-0.3-14,17.2-25,18c-30.8,2.4-62-40-62-40s11.8-30.2,10-45
				C277.9,376.3,317.1,419,337.5,417.8z"/>
			<path class="st24" d="M134.7,492.5c-0.4-0.4-0.4-1,0-1.4c48.1-44.2,121.2-111.9,123.6-155.3c0-0.4,0.4-0.8,0.8-0.9
				s0.9,0.1,1.1,0.5c7.1,12.9,53.9,69.9,92.3,80.5c0.5,0.1,0.8,0.7,0.7,1.2c-0.1,0.5-0.7,0.8-1.2,0.7
				c-37.3-10.3-80.7-61.6-91.8-78.7c-3.7,43.7-68.4,102.5-123.9,153.4c-0.2,0.2-0.4,0.3-0.7,0.3
				C135.4,492.8,135.1,492.7,134.7,492.5z"/>
		</g>
		<path class="st25" d="M224.7,206.4l25.3,78.5c1.3,3.8-0.8,6.9-4.6,6.8l-111.8-4.9c-3.1-0.1-6.5-2.9-7.6-6.3l-25-76.6
			c-1-3.3,0.5-6.2,3.5-6.4l111.3,2.5C219.5,199.8,223.5,202.6,224.7,206.4z"/>
		<path class="st26" d="M174.5,243.3c0,3.6-2.9,6.5-6.5,6.5s-6.5-2.9-6.5-6.5s2.9-6.5,6.5-6.5S174.5,239.8,174.5,243.3z"/>
	</g>
	<polygon class="st27" points="278.1,130.2 299.1,126.1 285,110 	"/>
	<circle class="st28" cx="468.4" cy="194.6" r="8.6"/>
	<rect x="201.2" y="156.9" class="st29" width="12.5" height="12.5"/>
	
		<rect x="367.4" y="45.6" transform="matrix(0.7071 -0.7071 0.7071 0.7071 72.0568 281.2213)" class="st30" width="16.1" height="16.1"/>
	<path class="st31" d="M479.9,84.6L476,99.2l-10.7-10.7L479.9,84.6 M483.9,80.7L460,87.1l17.5,17.5L483.9,80.7L483.9,80.7z"/>
	<path class="st1" d="M221.4,118.3c3.5,0,6.3,2.8,6.3,6.3c0,3.5-2.8,6.3-6.3,6.3s-6.3-2.8-6.3-6.3S217.9,118.3,221.4,118.3
		 M221.4,116.2c-4.6,0-8.4,3.8-8.4,8.4s3.8,8.4,8.4,8.4s8.4-3.8,8.4-8.4S226,116.2,221.4,116.2L221.4,116.2z"/>
	<path class="st1" d="M524.3,181.4h9.8v9.8h-9.8V181.4 M522.4,179.6v13.5h13.5v-13.5H522.4L522.4,179.6z"/>
	<path class="st0" d="M282.5,189.7l6.1,6.1l-6.1,6.1l-6.1-6.1L282.5,189.7 M282.5,187l-8.8,8.8l8.8,8.8l8.8-8.8L282.5,187L282.5,187
		z"/>
</g>
</svg>
