<svg xmlns="http://www.w3.org/2000/svg" id="Capa_1" height="512" viewBox="0 0 511.932 511.932" width="512"><g><g><path d="m194.459 33.897v-24.945c9.452-1.559 26.271-3.07 46.151 2.209 21.311 5.659 35.877 16.395 43.308 22.736-12.713.006-30.341 1.405-50.331 7.489-16.337 4.972-29.457 11.614-39.128 17.456z" fill="#fd8087"></path><path d="m317.088 500.908h-244.252v-196.346c0-6.682 5.417-12.099 12.099-12.099h220.054c6.682 0 12.099 5.417 12.099 12.099z" fill="#feca9c"></path><path d="m317.087 304.573c0-6.688-5.412-12.11-12.088-12.11h-32.139c0 90.651-73.353 164.138-163.839 164.138h-36.186v44.307h244.252z" fill="#fdb97e"></path><path d="m206.018 154.908h-48.75l-44.719 110.89-10.564 26.181h185.953l-55.283-137.071z" fill="#ffe3cb"></path><path d="m206.018 154.908h-48.75l-44.719 110.89-10.564 26.181h185.953l-55.283-137.071z" fill="#ffe3cb"></path><path d="m232.655 154.908 55.284 137.071h-185.954l10.564-26.182h18.816c46.247 0 80.603-37.983 80.603-80.599 0-9.456-1.699-19.143-5.327-28.679-.201-.544-.412-1.077-.623-1.611z" fill="#fedbbd"></path><path d="m221.111 121.168-26.149-23.053-26.149 23.053c-7.338 6.47-11.544 15.789-11.544 25.582v9.769h75.387v-9.769c-.001-9.793-4.207-19.113-11.545-25.582z" fill="#feca9c"></path><path d="m221.111 121.168-26.149-23.053-.503.443.518.457c7.338 6.469 11.544 15.788 11.544 25.58 0 5.397-4.367 9.771-9.754 9.771h-37.173c-1.521 3.905-2.326 8.099-2.326 12.384v9.769h75.387v-9.769c0-9.793-4.206-19.113-11.544-25.582z" fill="#fdb97e"></path><path d="m247.732 500.908h-104.536v-60.128c0-28.318 12.304-55.233 33.706-73.731l14.651-12.663c1.677-1.449 4.154-1.473 5.858-.056l15.207 12.648c22.244 18.501 35.114 45.961 35.114 74.924z" fill="#eaa998"></path><path d="m143.196 500.908h104.536v-59.006c0-16.238-4.047-32.003-11.521-45.982-23.182 28.568-55.756 49.172-93.015 57.093z" fill="#e49280"></path></g><path d="m382.423 496.933h-57.835v-76.733c0-4.142-3.358-7.5-7.5-7.5s-7.5 3.358-7.5 7.5v76.733h-54.356v-52.948c0-31.89-13.762-61.874-37.757-82.262l-15.207-12.923c-4.58-3.89-11.173-3.827-15.679.151l-14.651 12.937c-23.032 20.338-36.242 49.843-36.242 80.95v54.094h-55.36v-192.27c0-2.592 2.109-4.701 4.701-4.701h219.851c2.592 0 4.701 2.109 4.701 4.701v85.69c0 4.142 3.358 7.5 7.5 7.5s7.5-3.358 7.5-7.5v-85.69c0-10.863-8.838-19.701-19.701-19.701h-11.69l-53.042-131.513v-6.698c0-11.94-5.131-23.316-14.08-31.214l-24.116-21.253v-31.133c10.705-6.103 22.056-11.01 33.812-14.589 15.595-4.746 31.794-7.157 48.15-7.164 3.141-.001 5.948-1.96 7.034-4.907s.22-6.259-2.169-8.298c-13.355-11.396-29.349-19.792-46.252-24.28-15.941-4.232-32.988-5.048-49.295-2.36-3.623.597-6.28 3.729-6.28 7.4v.548 49.342 36.328l-23.114 20.371c-8.946 7.895-14.077 19.271-14.077 31.211v6.697l-17.683 43.843c-1.549 3.841.309 8.211 4.15 9.761 3.842 1.549 8.211-.308 9.761-4.15l16.333-40.498h65.262l49.234 122.072h-163.729l22.049-54.67c1.549-3.841-.309-8.211-4.15-9.761-3.842-1.548-8.211.309-9.761 4.15l-24.509 60.768h-11.69c-10.863 0-19.701 8.838-19.701 19.701v192.27h-57.835c-4.142 0-7.5 3.358-7.5 7.5s3.358 7.5 7.5 7.5h374.923c4.142 0 7.5-3.358 7.5-7.5s-3.358-7.502-7.5-7.502zm-231.727-54.095c0-26.807 11.361-52.213 31.171-69.706l12.687-11.203 13.208 11.224c20.635 17.534 32.47 43.351 32.47 70.832v52.784h-89.536zm87.989-424.428c8.054 2.138 15.872 5.294 23.208 9.339-10.324 1.269-20.52 3.428-30.49 6.463-10.133 3.084-19.993 7.065-29.444 11.885v-30.578c12.28-1.241 24.856-.261 36.726 2.891zm-64.919 108.381 21.195-18.68 21.192 18.676c5.721 5.048 9.001 12.325 9.001 19.964v.652h-60.387v-.652c.001-7.639 3.282-14.915 8.999-19.96z"></path></g></svg>